<?xml version="1.0" standalone="yes"?><svg xmlns="http://www.w3.org/2000/svg" viewBox="0 0 128 128" style="zoom: 1;"><path d="M82.803,34.23 c-2.604,-8.108 -6.781,-15.284 -12.667,-21.459 c-1.488,-1.562 -3.142,-2.993 -4.18,-4.936 c-.656,-1.23 -1.281,-2.477 -1.92,-3.715 l-.406,-1.021 l-.113,.402 c-.053,2.02 -1.197,3.389 -2.621,4.668 c-1.604,1.438 -3.096,3 -4.636,4.509 l-4.736,6.229 l-3.829,7.042 l-2.561,6.915 l-.077,.107 c-1.409,4.629 -2.104,9.389 -2.445,14.195 c-.129,1.807 .019,3.639 .12,5.455 c.145,2.596 .596,5.147 1.272,7.66 c2.457,9.126 7.444,16.695 14.263,23.127 c1.266,1.195 2.635,2.282 3.956,3.418 l.585,2.008 l.544,3.116 l.26,3.253 c-.003,.66 -.03,1.323 .009,1.981 c.011,.169 .231,.325 .355,.487 l1.104,.388 l1.149,.447 l-.197,-2.891 l-.009,-2.848 l.397,-4.338 l.288,-.944 l.825,-1.461 c1.018,-.818 2.109,-1.562 3.036,-2.473 c1.677,-1.647 3.351,-3.317 4.852,-5.122 c1.947,-2.341 3.623,-4.896 4.969,-7.636 c.899,-1.833 1.747,-3.703 2.448,-5.618 c.618,-1.688 1.001,-3.463 1.488,-5.2 l.128,-.375 c1.005,-4.688 1.174,-9.424 .805,-14.19 c-.297,-3.841 -1.2,-7.548 -2.456,-11.18 m-19.9,50.275 c.154,-.771 .345,-1.538 .484,-2.312 c-.139,.774 -.329,1.541 -.484,2.312 m3.417,.532 l-.646,-1.415 l.646,1.415 l.949,.811 l-.949,-.811 M106.474,102.964 c-.826,-1.583 -2.038,-2.785 -3.64,-3.574 c-1.342,-.66 -2.785,-.95 -4.269,-.992 c-1.112,-.032 -2.228,.025 -3.342,.039 c-.989,.012 -1.979,.029 -2.968,.02 c-1.163,-.012 -2.326,-.047 -3.489,-.08 c-.193,-.006 -.33,.033 -.42,.229 c-.141,.305 -.308,.599 -.481,.933 l.194,.062 c.577,.102 1.157,.189 1.731,.304 c.738,.147 1.07,.571 1.104,1.193 c.05,.886 .07,1.774 .067,2.662 c-.015,3.514 -.04,7.028 -.066,10.541 c-.002,.232 -.006,.474 -.069,.692 c-.073,.252 -.152,.578 -.34,.702 c-.325,.216 -.728,.362 -1.115,.425 c-.561,.092 -.655,.117 -.83,.669 l-.076,.276 c-.084,.301 -.039,.36 .275,.363 c1.802,.02 3.603,.059 5.404,.053 c1.643,-.006 3.286,.094 4.923,-.215 c1.547,-.291 2.991,-.801 4.309,-1.664 c1.71,-1.121 2.94,-2.619 3.589,-4.574 c.524,-1.579 .641,-3.19 .463,-4.841 c-.121,-1.139 -.427,-2.212 -.954,-3.223 m-3.157,9.661 c-.964,1.794 -2.402,2.992 -4.457,3.308 c-1.287,.197 -2.576,.14 -3.803,-.347 c-.777,-.308 -1.066,-.979 -1.09,-1.772 c-.023,-.777 -.032,-1.555 -.033,-2.332 c-.004,-2.734 -.004,-5.468 0,-8.201 c.002,-.861 .017,-1.724 .031,-2.586 c.01,-.606 .137,-.809 .728,-.858 c2.596,-.218 5.073,.062 7.13,1.889 c1.272,1.13 1.996,2.571 2.297,4.226 c.125,.69 .163,1.396 .241,2.096 c-.063,1.598 -.279,3.153 -1.044,4.577 M125.106,109.664 c-.512,-1.246 -1.482,-2.027 -2.701,-2.527 c-.416,-.171 -.845,-.312 -1.294,-.478 l.157,-.1 c.485,-.311 1.025,-.562 1.443,-.945 c1.016,-.931 1.438,-2.102 1.24,-3.493 c-.188,-1.323 -.848,-2.294 -2.027,-2.924 c-1.07,-.57 -2.224,-.778 -3.418,-.777 c-2.066,.002 -4.133,.033 -6.199,.037 c-.712,.001 -1.424,-.052 -2.136,-.062 c-.138,-.002 -.343,.033 -.402,.125 c-.163,.25 -.271,.538 -.387,.816 c-.067,.162 -.001,.251 .184,.275 c.497,.068 .993,.153 1.491,.227 c.688,.103 1.021,.461 1.063,1.154 l.009,.411 c.001,2.155 .008,4.31 -.001,6.465 c-.011,2.151 -.035,4.304 -.061,6.456 c-.003,.271 -.04,.543 -.079,.812 c-.059,.406 -.276,.686 -.692,.774 l-1.177,.232 c-.139,.028 -.34,.024 -.397,.11 c-.216,.323 -.39,.676 -.366,1.102 l.121,.033 l3.953,.097 l.793,-.003 c1.368,-.016 2.738,.011 4.104,-.059 c1.479,-.074 2.868,-.513 4.152,-1.268 c1.367,-.805 2.419,-1.866 2.793,-3.462 c.24,-1.019 .241,-2.044 -.166,-3.028 m-10.043,-9.181 c.006,-.433 .197,-.621 .627,-.632 c1.059,-.029 2.111,-.023 3.133,.342 c1.322,.472 2.135,1.612 2.12,3.005 c-.007,.535 .001,1.065 -.196,1.579 c-.389,1.012 -1.135,1.546 -2.193,1.65 c-.552,.056 -1.109,.062 -1.601,.088 l-1.642,-.072 c-.218,-.008 -.313,-.104 -.312,-.328 l.064,-5.632 m6.806,13.494 c-.529,1.151 -1.493,1.756 -2.7,1.966 c-.965,.168 -1.938,.119 -2.892,-.127 c-.706,-.181 -.994,-.748 -1.135,-1.377 c-.095,-.421 -.079,-.922 -.087,-1.36 c-.013,-.676 -.003,-2.079 -.003,-2.079 h-.014 c0,-1 .003,-1.866 -.003,-2.825 c-.001,-.207 .034,-.31 .287,-.302 c.898,.027 1.799,.042 2.697,.077 c.803,.031 1.555,.269 2.262,.65 c1.076,.58 1.724,1.468 1.902,2.688 c.136,.925 .078,1.835 -.314,2.689 M23.282,115.055 l.019,-5.437 c.003,-.818 -.101,-1.62 -.369,-2.396 c-.739,-2.137 -2.777,-3.11 -4.899,-2.343 c-.965,.349 -1.83,.878 -2.656,1.478 c-.481,.35 -.481,.35 -.829,-.149 c-.985,-1.412 -2.392,-1.895 -4.03,-1.374 c-1.059,.336 -1.985,.911 -2.862,1.579 c-.082,.062 -.247,.131 -.296,.094 c-.082,-.061 -.139,-.206 -.137,-.315 l.06,-.966 c.005,-.203 -.034,-.407 -.054,-.62 c-.396,.137 -.712,.274 -1.043,.354 c-1.023,.25 -2.053,.48 -3.082,.715 c-.249,.057 -.512,.132 -.536,.418 c-.025,.281 .246,.328 .456,.412 c.442,.178 .881,.367 1.318,.559 c.367,.162 .504,.455 .502,.849 c-.007,1.685 .004,3.368 -.006,5.053 c-.004,.685 -.036,1.369 -.067,2.054 c-.028,.607 -.235,.861 -.823,1.014 c-.312,.082 -.629,.137 -.943,.211 c-.069,.016 -.187,.06 -.188,.094 c-.013,.297 -.029,.601 .021,.89 c.01,.052 .324,.052 .498,.072 l.117,-.007 c1.212,-.018 2.424,-.037 3.637,-.05 c.643,-.007 1.285,-.001 1.983,-.001 l.075,-.97 c-.4,-.073 -.757,-.128 -1.109,-.205 c-.549,-.12 -.783,-.411 -.797,-.965 l-.01,-.793 c-.006,-2.057 -.014,-4.113 -.014,-6.17 c0,-.299 .124,-.536 .387,-.715 c.557,-.376 1.145,-.675 1.796,-.842 c1.372,-.351 2.562,.137 3.09,1.304 c.167,.368 .298,.775 .335,1.175 c.194,2.062 .11,4.126 -.007,6.188 c-.025,.445 -.234,.669 -.673,.778 l-1.032,.218 c-.083,.021 -.204,-.035 -.21,.034 c-.023,.285 -.01,.722 -.01,.722 h.246 l3.142,.103 c.861,-.002 1.723,.102 2.583,.124 c.154,.003 .291,.026 .3,-.152 c.014,-.282 .002,-.547 -.011,-.829 l-.164,-.029 l-.885,-.199 c-.597,-.141 -.803,-.368 -.805,-.972 c-.007,-1.489 .013,-2.977 0,-4.465 c-.007,-.851 -.04,-1.702 -.095,-2.551 c-.015,-.226 .02,-.374 .2,-.501 c.53,-.378 1.103,-.669 1.732,-.835 c1.935,-.51 3.519,.551 3.619,2.546 c.098,1.924 .057,3.855 .042,5.783 c-.005,.671 -.227,.874 -.888,1.054 l-.228,.059 c-.677,.162 -.671,.162 -.631,.881 c.013,.225 .075,.283 .315,.277 c1.379,-.031 2.758,-.039 4.137,-.051 c.564,-.005 1.128,0 1.742,0 l.125,-.936 c-.539,-.143 -1.036,-.249 -1.516,-.406 c-.424,-.144 -.574,-.4 -.572,-.848 M70.771,106.814 c.568,-.527 .572,-1.223 .413,-1.996 c-.45,.471 -.954,.688 -1.529,.729 c-.771,.055 -1.528,-.012 -2.246,-.319 c-1.942,-.834 -3.854,-.775 -5.76,.14 c-1.603,.768 -2.589,1.965 -2.688,3.78 c-.063,1.163 .155,2.264 .931,3.189 c.465,.554 1.062,.913 1.735,1.161 c.29,.107 .312,.245 .069,.43 c-.178,.137 -.367,.261 -.557,.38 c-.406,.255 -.815,.507 -1.226,.754 c-.241,.146 -.323,.332 -.244,.617 c.231,.838 .826,1.322 1.57,1.675 l.271,.189 l-.237,.237 c-.729,.591 -1.487,1.149 -2.185,1.776 c-.586,.527 -.775,1.233 -.598,2.012 c.357,1.555 1.388,2.517 2.851,2.959 c2.557,.774 4.958,.33 7.147,-1.185 c1.298,-.899 2.229,-2.069 2.512,-3.679 c.317,-1.809 -.688,-3.379 -2.487,-3.703 c-1.19,-.216 -2.408,-.278 -3.612,-.416 c-.562,-.064 -1.132,-.102 -1.679,-.231 c-.465,-.11 -.696,-.489 -.653,-.859 c.043,-.364 .43,-.703 .873,-.738 c.892,-.072 1.766,-.211 2.588,-.587 c2.178,-.996 3.189,-2.74 2.936,-5.088 c-.033,-.316 -.105,-.628 -.17,-.996 c.697,.117 1.41,.294 1.975,-.231 m-6.609,11.017 c.886,.026 1.894,.081 2.868,.366 c.857,.25 1.562,.688 1.77,1.645 c.251,1.156 -.305,2.306 -1.424,2.924 c-1.048,.578 -2.186,.626 -3.34,.507 c-.988,-.102 -1.877,-.444 -2.589,-1.174 c-.938,-.961 -.943,-2.291 -.004,-3.249 c.839,-.856 1.288,-1.033 2.719,-1.019 m2.217,-6.962 c-.516,1.651 -2.018,1.879 -3.195,1.351 c-1.003,-.449 -1.44,-1.333 -1.669,-2.342 c-.089,-.388 -.11,-.791 -.162,-1.188 c.021,-.569 .115,-1.115 .36,-1.627 c.751,-1.577 2.596,-1.483 3.617,-.769 c.438,.306 .743,.722 .934,1.215 c.424,1.104 .467,2.229 .115,3.36 M57.009,116.132 c-.355,-.057 -.712,-.131 -1.057,-.236 c-.608,-.186 -.682,-.3 -.689,-.943 c-.018,-1.792 -.03,-3.584 -.05,-5.375 c-.01,-.806 -.106,-1.601 -.353,-2.371 c-.65,-2.03 -2.641,-3.12 -4.633,-2.521 c-1.104,.333 -2.052,.952 -2.935,1.679 l-.322,.247 l.001,-.331 c.021,-.381 .062,-.762 .059,-1.143 c-.002,-.199 -.078,-.399 -.115,-.574 c-.753,.227 -1.428,.455 -2.117,.629 c-.691,.174 -1.396,.292 -2.095,.434 c-.347,.07 -.602,.28 -.596,.519 c.009,.337 .288,.402 .532,.503 c.442,.181 .883,.364 1.32,.558 c.312,.139 .439,.397 .436,.732 c-.022,2.329 -.036,4.659 -.07,6.989 c-.01,.736 -.196,.93 -.92,1.092 l-.316,.063 c-.67,.115 -.689,.142 -.643,.849 l.004,.117 c-.008,.272 .111,.36 .391,.357 c1.78,-.021 3.561,-.031 5.341,-.024 c.763,.003 .845,-.057 .829,-.841 l-.036,-.337 c-.436,-.073 -.853,-.126 -1.261,-.216 c-.427,-.095 -.58,-.27 -.62,-.704 c-.037,-.397 -.049,-.8 -.053,-1.2 c-.02,-1.831 -.036,-3.662 -.045,-5.492 c-.002,-.461 .083,-.889 .507,-1.186 c.643,-.449 1.347,-.709 2.125,-.762 c1.588,-.109 2.795,.832 2.881,2.415 c.106,1.953 .074,3.913 .099,5.87 c.002,.146 -.024,.293 -.044,.438 c-.038,.286 -.178,.501 -.468,.575 c-.283,.074 -.57,.14 -.859,.184 c-.431,.064 -.44,.061 -.473,.496 l.011,.293 c.051,.506 .052,.491 .564,.486 c1.722,-.014 3.443,-.023 5.164,-.021 c.72,.002 .771,-.032 .777,-.774 l-.002,-.176 c.011,-.19 -.074,-.267 -.269,-.298 M81.061,104.809 c-1.805,-.441 -3.517,-.113 -5.143,.728 c-1.58,.817 -2.636,2.08 -3.038,3.824 c-.406,1.763 -.212,3.483 .567,5.12 c.507,1.063 1.287,1.885 2.349,2.419 c2.486,1.252 5.527,.684 7.477,-.991 c1.539,-1.321 2.104,-3.08 2.138,-5.257 c-.021,-.218 -.042,-.638 -.1,-1.054 c-.327,-2.37 -1.968,-4.231 -4.25,-4.789 m1.367,9.155 c-.479,1.886 -2.11,2.724 -3.95,2.076 c-.939,-.33 -1.641,-.961 -2.113,-1.814 c-1.086,-1.96 -1.295,-4.044 -.677,-6.182 c.412,-1.424 1.584,-2.203 2.978,-2.105 c1.246,.087 2.204,.685 2.907,1.699 c.741,1.07 1.027,2.287 1.103,3.565 c.013,.205 .002,.41 .002,.616 l.088,.01 c-.11,.713 -.162,1.44 -.338,2.135 M35.664,104.778 c-1.899,-.434 -3.678,-.005 -5.326,.96 c-1.425,.834 -2.346,2.08 -2.699,3.708 c-.331,1.521 -.196,3.016 .343,4.473 c.328,.888 .825,1.669 1.554,2.278 c1.535,1.281 3.329,1.605 5.238,1.248 c1.616,-.303 3.036,-1.021 4.068,-2.364 c.966,-1.256 1.334,-2.698 1.372,-4.261 c-.057,-.495 -.071,-.999 -.176,-1.482 c-.522,-2.411 -1.932,-4.003 -4.374,-4.56 m1.549,9.18 c-.463,1.876 -2.12,2.735 -3.947,2.087 c-1.173,-.417 -1.937,-1.276 -2.42,-2.377 c-.774,-1.769 -.932,-3.61 -.431,-5.476 c.384,-1.427 1.541,-2.478 3.312,-2.226 c1.087,.154 1.935,.709 2.567,1.592 c.854,1.191 1.135,2.555 1.174,3.988 v.293 l.072,.011 c-.105,.704 -.157,1.42 -.327,2.108  z " fill-rule="evenodd" fill="#feffff" clip-rule="evenodd"></path></svg>