<?xml version="1.0" standalone="no"?>
<!DOCTYPE svg PUBLIC "-//W3C//DTD SVG 20010904//EN"
 "http://www.w3.org/TR/2001/REC-SVG-20010904/DTD/svg10.dtd">
<svg version="1.0" xmlns="http://www.w3.org/2000/svg"
 width="260.000000pt" height="260.000000pt" viewBox="0 0 260.000000 260.000000"
 preserveAspectRatio="xMidYMid meet">
<metadata>
Created by potrace 1.11, written by Peter Selinger 2001-2013
</metadata>
<g transform="translate(0.000000,260.000000) scale(0.100000,-0.100000)"
fill="#000000" stroke="none">
<path d="M1 1733 l0 -868 33 95 c18 52 54 147 79 210 l47 114 0 283 0 283 109
0 c87 0 111 -3 122 -16 11 -14 18 -6 50 58 21 40 38 69 39 65 0 -4 -14 -35
-31 -69 -36 -71 -34 -86 20 -147 l39 -45 17 40 c9 21 28 67 41 102 24 61 36
83 120 212 23 36 58 104 77 152 19 47 43 97 52 110 20 27 19 24 -34 -106 -40
-97 -49 -140 -16 -76 9 18 19 29 22 26 4 -3 -19 -54 -49 -114 -158 -303 -191
-375 -182 -398 5 -13 68 -94 139 -180 72 -87 153 -185 180 -218 l50 -61 3 333
2 332 125 0 125 0 0 -555 0 -555 -104 0 -104 0 -49 59 c-26 32 -88 108 -138
169 -49 61 -96 113 -102 116 -21 9 -26 -40 -8 -77 17 -37 17 -114 0 -110 -5 1
-11 15 -13 30 -2 15 -10 42 -18 60 -17 37 -17 54 -3 103 l11 38 -112 136 c-62
75 -114 136 -116 136 -2 0 -4 -147 -4 -326 0 -180 -1 -328 -2 -330 -4 -3 -109
-6 -195 -5 l-63 1 -2 247 -3 248 -42 -115 c-114 -314 -106 -280 -111 -520 l-4
-215 24 20 23 20 -22 -26 c-15 -16 -23 -38 -23 -62 l0 -37 56 30 c33 17 51 23
43 13 -8 -8 -33 -24 -57 -34 -35 -15 -43 -23 -40 -41 2 -19 8 -22 33 -20 37 4
70 25 91 57 27 42 254 268 261 261 4 -4 -35 -48 -86 -97 -51 -50 -90 -93 -88
-96 3 -2 19 3 36 11 16 9 43 16 58 16 l28 -1 -24 -19 c-13 -11 -31 -20 -40
-20 -24 0 -78 -36 -91 -60 -11 -21 -10 -22 20 -15 18 4 51 16 74 26 22 10 50
19 61 19 16 0 13 -4 -12 -20 -18 -11 -33 -22 -33 -24 0 -4 144 39 159 48 5 4
51 7 101 7 103 0 120 4 120 26 0 12 8 14 36 10 52 -9 117 30 77 44 -14 5 -12
9 12 25 20 13 30 15 33 6 6 -20 29 -14 64 17 56 48 192 141 208 141 9 0 5 -6
-10 -17 -23 -16 -164 -128 -235 -186 -16 -14 -27 -28 -24 -31 3 -4 33 0 65 9
53 14 82 13 152 -1 16 -3 22 -11 22 -29 0 -28 3 -29 32 -14 20 11 21 10 15
-35 -4 -25 -14 -57 -23 -71 -9 -14 -13 -32 -9 -45 9 -27 29 -21 125 39 41 25
87 51 103 58 15 7 89 58 165 114 75 56 153 114 172 127 19 14 80 64 134 111
l99 86 -54 11 c-80 16 -156 51 -230 107 -101 75 -172 180 -204 304 -18 68 -20
210 -4 285 53 251 275 424 559 436 182 7 325 -39 435 -140 l56 -51 -78 -73
c-43 -40 -82 -73 -86 -74 -5 0 -29 18 -54 40 -63 55 -135 80 -233 80 -220 0
-363 -157 -347 -381 6 -95 38 -170 97 -229 127 -127 358 -130 492 -6 23 21 44
33 55 30 11 -3 46 16 93 51 40 31 107 80 147 108 l73 51 0 53 c0 29 -3 53 -6
53 -3 0 -58 -37 -122 -83 -127 -91 -142 -101 -142 -93 0 2 30 28 68 57 37 29
97 77 135 107 l67 54 0 589 0 589 -780 0 -780 0 -69 -142 c-69 -144 -100 -196
-101 -169 0 8 34 78 75 156 41 79 75 146 75 149 0 3 -229 6 -510 6 l-510 0 1
-867z m680 -916 c-16 -16 -26 0 -10 19 9 11 15 12 17 4 2 -6 -1 -17 -7 -23z
m33 -6 c3 -5 -22 -21 -56 -35 -58 -25 -159 -91 -166 -108 -2 -5 -8 -8 -13 -8
-5 0 -1 15 9 33 15 26 35 39 107 68 49 19 91 41 93 47 4 14 19 16 26 3z m886
-36 c0 -15 -275 -115 -335 -120 l-40 -4 45 18 c40 17 303 106 323 110 4 0 7
-1 7 -4z m-1285 -74 c5 -9 -35 -44 -43 -37 -5 6 21 46 30 46 4 0 9 -4 13 -9z
m895 -50 c-8 -5 -26 -12 -40 -16 -24 -7 -24 -7 -5 9 11 8 29 15 40 15 16 0 17
-1 5 -8z m-745 -20 c-3 -6 -11 -11 -17 -11 -6 0 -6 6 2 15 14 17 26 13 15 -4z"/>
<path d="M2540 1186 c-25 -13 -85 -53 -133 -89 l-88 -64 62 -56 c57 -52 60
-57 47 -76 -65 -93 -281 -181 -443 -181 -66 0 -83 -11 -314 -205 -152 -127
-263 -214 -346 -270 -27 -19 -66 -49 -85 -66 -48 -44 -124 -92 -189 -119 -53
-23 -54 -23 -68 -4 -9 13 -12 31 -7 58 11 68 10 109 -4 123 -8 7 -18 11 -23 8
-19 -12 -78 7 -85 27 -9 29 -61 19 -122 -23 -53 -36 -93 -45 -262 -59 -128
-10 -139 -12 -227 -46 -34 -13 -89 -27 -123 -31 -79 -8 -124 -36 -128 -81 l-3
-32 245 0 245 0 37 25 c36 25 59 26 36 3 -7 -7 -12 -16 -12 -20 0 -4 461 -8
1025 -8 l1025 0 0 313 0 312 -128 -131 c-124 -128 -184 -179 -195 -168 -3 3
-15 1 -26 -6 -12 -6 -21 -8 -21 -6 0 9 80 187 103 230 29 53 58 116 53 116 -2
0 -46 -56 -97 -124 -52 -69 -95 -123 -97 -122 -9 9 90 191 208 381 189 305
200 325 200 374 0 22 -3 41 -7 41 -5 -1 -28 -11 -53 -24z"/>
<path d="M2514 816 c-141 -244 -201 -376 -170 -376 28 0 126 75 189 144 l68
75 -3 149 -3 149 -81 -141z"/>
<path d="M465 312 c-33 -6 -106 -35 -101 -39 5 -5 137 13 169 23 9 3 17 9 17
14 0 9 -44 10 -85 2z"/>
</g>
</svg>
