<?xml version="1.0" standalone="yes"?><svg xmlns="http://www.w3.org/2000/svg" viewBox="0 0 128 128" style="zoom: 1;"><path fill="#feffff" d="M8.76,1 l10.055,112.883 l45.118,12.58 l45.244,-12.626 l10.063,-112.837 h-110.48 m89.591,25.862 l-3.347,37.605 l.01,.203 l-.014,.467 v-.004 l-2.378,26.294 l-.262,2.336 l-28.36,7.844 v.001 l-.022,.019 l-28.311,-7.888 l-1.917,-21.739 h13.883 l.985,11.054 l15.386,4.17 l-.004,.008 v-.002 l15.443,-4.229 l1.632,-18.001 h-32.282999999999994 l-.277,-3.043 l-.631,-7.129 l-.331,-3.828 h34.748999999999995 l1.264,-14 h-52.926 l-.277,-3.041 l-.63,-7.131 l-.332,-3.828 h69.281 l-.331,3.862  z "></path></svg>