<?xml version="1.0" standalone="yes"?><svg xmlns="http://www.w3.org/2000/svg" viewBox="0 0 128 128" style="zoom: 1;"><path fill="#feffff" d="M2,1 v125 h125 v-125 h-125 m66.119,106.513 c-1.845,3.749 -5.367,6.212 -9.448,7.401 c-6.271,1.44 -12.269,.619 -16.731,-2.059 c-2.986,-1.832 -5.318,-4.652 -6.901,-7.901 l9.52,-5.83 c.083,.035 .333,.487 .667,1.071 c1.214,2.034 2.261,3.474 4.319,4.485 c2.022,.69 6.461,1.131 8.175,-2.427 c1.047,-1.81 .714,-7.628 .714,-14.065 c-.001,-10.115 .046,-20.188 .046,-30.188 h11.709 c0,11 .06,21.418 0,32.152 c.025,6.58 .596,12.446 -2.07,17.361 m48.574,-3.308 c-4.07,13.922 -26.762,14.374 -35.83,5.176 c-1.916,-2.165 -3.117,-3.296 -4.26,-5.795 c4.819,-2.772 4.819,-2.772 9.508,-5.485 c2.547,3.915 4.902,6.068 9.139,6.949 c5.748,.702 11.531,-1.273 10.234,-7.378 c-1.333,-4.986 -11.77,-6.199 -18.873,-11.531 c-7.211,-4.843 -8.901,-16.611 -2.975,-23.335 c1.975,-2.487 5.343,-4.343 8.877,-5.235 l3.688,-.477 c7.081,-.143 11.507,1.727 14.756,5.355 c.904,.916 1.642,1.904 3.022,4.045 c-3.772,2.404 -3.76,2.381 -9.163,5.879 c-1.154,-2.486 -3.069,-4.046 -5.093,-4.724 c-3.142,-.952 -7.104,.083 -7.926,3.403 c-.285,1.023 -.226,1.975 .227,3.665 c1.273,2.903 5.545,4.165 9.377,5.926 c11.031,4.474 14.756,9.271 15.672,14.981 c.882,4.916 -.213,8.105 -.38,8.581  z "></path></svg>