<?xml version="1.0" standalone="yes"?><svg xmlns="http://www.w3.org/2000/svg" viewBox="0 0 128 128" style="zoom: 1;"><path fill="#feffff" d="M116.948,97.807 c-6.863,-.187 -12.104,.452 -16.585,2.341 c-1.273,.537 -3.305,.552 -3.513,2.147 c.7,.733 .809,1.829 1.365,2.731 c1.07,1.73 2.876,4.052 4.488,5.268 c1.762,1.33 3.577,2.751 5.465,3.902 c3.358,2.047 7.107,3.217 10.34,5.268 c1.906,1.21 3.799,2.733 5.658,4.097 c.92,.675 1.537,1.724 2.732,2.147 v-.194 c-.628,-.8 -.79,-1.898 -1.366,-2.733 l-2.537,-2.537 c-2.48,-3.292 -5.629,-6.184 -8.976,-8.585 c-2.669,-1.916 -8.642,-4.504 -9.755,-7.609 l-.195,-.195 c1.892,-.214 4.107,-.898 5.854,-1.367 c2.934,-.786 5.556,-.583 8.585,-1.365 l4.097,-1.171 v-.78 c-1.531,-1.571 -2.623,-3.651 -4.292,-5.073 c-4.37,-3.72 -9.138,-7.437 -14.048,-10.537 c-2.724,-1.718 -6.089,-2.835 -8.976,-4.292 c-.971,-.491 -2.677,-.746 -3.318,-1.562 c-1.517,-1.932 -2.342,-4.382 -3.511,-6.633 c-2.449,-4.717 -4.854,-9.868 -7.024,-14.831 c-1.48,-3.384 -2.447,-6.72 -4.293,-9.756 c-8.86,-14.567 -18.396,-23.358 -33.169,-32 c-3.144,-1.838 -6.929,-2.563 -10.929,-3.513 c-2.145,-.129 -4.292,-.26 -6.438,-.391 c-1.311,-.546 -2.673,-2.149 -3.902,-2.927 c-4.894,-3.092 -17.448,-9.817 -21.072,-.975 c-2.289,5.581 3.421,11.025 5.462,13.854 c1.434,1.982 3.269,4.207 4.293,6.438 c.674,1.467 .79,2.938 1.367,4.489 c1.417,3.822 2.652,7.98 4.487,11.511 c.927,1.788 1.949,3.67 3.122,5.268 c.718,.981 1.951,1.413 2.145,2.927 c-1.204,1.686 -1.273,4.304 -1.95,6.44 c-3.05,9.615 -1.899,21.567 2.537,28.683 c1.36,2.186 4.567,6.871 8.975,5.073 c3.856,-1.57 2.995,-6.438 4.098,-10.732 c.249,-.973 .096,-1.689 .585,-2.341 v.195 l3.513,7.024 c2.6,4.187 7.212,8.562 11.122,11.514 c2.027,1.531 3.623,4.177 6.244,5.073 v-.196 h-.195 c-.508,-.791 -1.303,-1.119 -1.951,-1.755 c-1.527,-1.497 -3.225,-3.358 -4.487,-5.073 c-3.556,-4.827 -6.698,-10.11 -9.561,-15.609 c-1.368,-2.627 -2.557,-5.523 -3.709,-8.196 c-.444,-1.03 -.438,-2.589 -1.364,-3.122 c-1.263,1.958 -3.122,3.542 -4.098,5.854 c-1.561,3.696 -1.762,8.204 -2.341,12.878 c-.342,.122 -.19,.038 -.391,.194 c-2.718,-.655 -3.672,-3.452 -4.683,-5.853 c-2.554,-6.07 -3.029,-15.842 -.781,-22.829 c.582,-1.809 3.21,-7.501 2.146,-9.172 c-.508,-1.666 -2.184,-2.63 -3.121,-3.903 c-1.161,-1.574 -2.319,-3.646 -3.124,-5.464 c-2.09,-4.731 -3.066,-10.044 -5.267,-14.828 c-1.053,-2.287 -2.832,-4.602 -4.293,-6.634 c-1.617,-2.253 -3.429,-3.912 -4.683,-6.635 c-.446,-.968 -1.051,-2.518 -.391,-3.513 c.21,-.671 .508,-.951 1.171,-1.17 c1.132,-.873 4.284,.29 5.462,.779 c3.129,1.3 5.741,2.538 8.392,4.294 c1.271,.844 2.559,2.475 4.097,2.927 h1.756 c2.747,.631 5.824,.195 8.391,.975 c4.536,1.378 8.601,3.523 12.292,5.854 c11.246,7.102 20.442,17.21 26.732,29.269 c1.012,1.942 1.45,3.794 2.341,5.854 c1.798,4.153 4.063,8.426 5.852,12.488 c1.786,4.052 3.526,8.141 6.05,11.513 c1.327,1.772 6.451,2.723 8.781,3.708 c1.632,.689 4.307,1.409 5.854,2.34 c2.953,1.782 5.815,3.903 8.586,5.855 c1.383,.975 5.64,3.116 5.852,4.879 M29.729,23.466 c-1.431,-.027 -2.443,.156 -3.513,.389 v.195 h.195 c.683,1.402 1.888,2.306 2.731,3.513 c.65,1.367 1.301,2.732 1.952,4.097 l.194,-.193 c1.209,-.853 1.762,-2.214 1.755,-4.294 c-.484,-.509 -.555,-1.147 -.975,-1.755 c-.556,-.811 -1.635,-1.272 -2.339,-1.952  z "></path></svg>